<svg width="315" height="69" viewBox="0 0 315 69" fill="none" xmlns="http://www.w3.org/2000/svg">
<path d="M99.21 68.665C93.8267 68.665 88.9817 67.5567 84.675 65.34C80.3683 63.1233 76.98 59.9567 74.51 55.84C72.1033 51.66 70.9 46.7833 70.9 41.21C70.9 35.6367 72.1033 30.7917 74.51 26.675C76.98 22.495 80.3683 19.2967 84.675 17.08C88.9817 14.8633 93.8267 13.755 99.21 13.755C104.593 13.755 109.438 14.8633 113.745 17.08C118.052 19.2967 121.408 22.495 123.815 26.675C126.285 30.7917 127.52 35.6367 127.52 41.21C127.52 46.7833 126.285 51.66 123.815 55.84C121.408 59.9567 118.052 63.1233 113.745 65.34C109.438 67.5567 104.593 68.665 99.21 68.665ZM99.21 50.425C101.173 50.425 102.82 49.665 104.15 48.145C105.48 46.5617 106.145 44.25 106.145 41.21C106.145 38.17 105.48 35.89 104.15 34.37C102.82 32.7867 101.173 31.995 99.21 31.995C97.2467 31.995 95.6 32.7867 94.27 34.37C92.94 35.89 92.275 38.17 92.275 41.21C92.275 44.25 92.9083 46.5617 94.175 48.145C95.505 49.665 97.1833 50.425 99.21 50.425ZM167.491 50.045V68H159.511C144.817 68 137.471 60.685 137.471 46.055V31.995H130.821V14.42H137.471V1.5H158.561V14.42H167.301V31.995H158.561V46.435C158.561 47.7017 158.846 48.62 159.416 49.19C160.049 49.76 161.062 50.045 162.456 50.045H167.491ZM227.392 40.735C227.392 42.1917 227.297 43.585 227.107 44.915H193.192C193.509 49.5383 195.441 51.85 198.987 51.85C201.267 51.85 202.914 50.805 203.927 48.715H226.252C225.492 52.515 223.877 55.935 221.407 58.975C219.001 61.9517 215.929 64.3267 212.192 66.1C208.519 67.81 204.466 68.665 200.032 68.665C194.712 68.665 189.962 67.5567 185.782 65.34C181.666 63.1233 178.436 59.9567 176.092 55.84C173.812 51.66 172.672 46.7833 172.672 41.21C172.672 35.6367 173.812 30.7917 176.092 26.675C178.436 22.495 181.666 19.2967 185.782 17.08C189.962 14.8633 194.712 13.755 200.032 13.755C205.352 13.755 210.071 14.8633 214.187 17.08C218.367 19.2333 221.597 22.3367 223.877 26.39C226.221 30.4433 227.392 35.225 227.392 40.735ZM206.017 35.7C206.017 33.9267 205.447 32.5967 204.307 31.71C203.167 30.76 201.742 30.285 200.032 30.285C196.296 30.285 194.111 32.09 193.477 35.7H206.017ZM257.908 68.665C252.841 68.665 248.344 67.8417 244.418 66.195C240.554 64.5483 237.483 62.2683 235.203 59.355C232.923 56.4417 231.624 53.1483 231.308 49.475H251.543C251.796 51.0583 252.461 52.23 253.538 52.99C254.678 53.75 256.103 54.13 257.813 54.13C258.889 54.13 259.744 53.9083 260.378 53.465C261.011 52.9583 261.328 52.3567 261.328 51.66C261.328 50.4567 260.663 49.6017 259.333 49.095C258.003 48.5883 255.754 48.0183 252.588 47.385C248.724 46.625 245.526 45.8017 242.993 44.915C240.523 44.0283 238.338 42.5083 236.438 40.355C234.601 38.2017 233.683 35.225 233.683 31.425C233.683 28.1317 234.538 25.155 236.248 22.495C238.021 19.7717 240.618 17.65 244.038 16.13C247.458 14.5467 251.606 13.755 256.483 13.755C263.703 13.755 269.339 15.5283 273.393 19.075C277.509 22.6217 279.979 27.245 280.803 32.945H262.088C261.771 31.4883 261.106 30.38 260.093 29.62C259.079 28.7967 257.718 28.385 256.008 28.385C254.931 28.385 254.108 28.6067 253.538 29.05C252.968 29.43 252.683 30.0317 252.683 30.855C252.683 31.9317 253.348 32.755 254.678 33.325C256.008 33.8317 258.129 34.37 261.043 34.94C264.906 35.7 268.168 36.555 270.828 37.505C273.488 38.455 275.799 40.1017 277.763 42.445C279.726 44.725 280.708 47.8917 280.708 51.945C280.708 55.1117 279.789 57.9617 277.953 60.495C276.116 63.0283 273.456 65.0233 269.973 66.48C266.553 67.9367 262.531 68.665 257.908 68.665ZM299.527 68.76C295.854 68.76 292.909 67.7783 290.692 65.815C288.475 63.8517 287.367 61.3817 287.367 58.405C287.367 55.365 288.475 52.8633 290.692 50.9C292.909 48.8733 295.854 47.86 299.527 47.86C303.137 47.86 306.05 48.8733 308.267 50.9C310.484 52.8633 311.592 55.365 311.592 58.405C311.592 61.3817 310.484 63.8517 308.267 65.815C306.05 67.7783 303.137 68.76 299.527 68.76Z" fill="#201C4F"/>
<path d="M42.275 14.04C48.4183 14.04 53.2 16.0983 56.62 20.215C60.1033 24.3317 61.845 29.905 61.845 36.935V68H40.85V39.595C40.85 37.0617 40.1533 35.0667 38.76 33.61C37.43 32.09 35.625 31.33 33.345 31.33C31.0017 31.33 29.165 32.09 27.835 33.61C26.505 35.0667 25.84 37.0617 25.84 39.595V68H4.75V14.42H25.84V22.59C27.4867 20.0567 29.6717 17.9983 32.395 16.415C35.1817 14.8317 38.475 14.04 42.275 14.04Z" fill="#F88908"/>
</svg>
